<mxfile host="app.diagrams.net" modified="2024-04-19T01:34:55.178Z" agent="Mozilla/5.0 (Macintosh; Intel Mac OS X 10_15_7) AppleWebKit/537.36 (KHTML, like Gecko) Chrome/121.0.0.0 Safari/537.36" etag="XvqH1Q4wD2JePtTfbWEw" version="23.1.5" type="github">
  <diagram name="Page-1" id="rM3vWbZLElF_DfZPS8z-">
    <mxGraphModel dx="1204" dy="219" grid="1" gridSize="10" guides="1" tooltips="1" connect="1" arrows="1" fold="1" page="1" pageScale="1" pageWidth="850" pageHeight="1100" math="0" shadow="0">
      <root>
        <mxCell id="0" />
        <mxCell id="1" parent="0" />
        <mxCell id="iL6ysjgsh68Y96Oe1kEA-1" value="" style="rounded=0;whiteSpace=wrap;html=1;fillColor=#000000;" vertex="1" parent="1">
          <mxGeometry x="30" y="40" width="800" height="470" as="geometry" />
        </mxCell>
        <mxCell id="iL6ysjgsh68Y96Oe1kEA-16" value="" style="rounded=0;whiteSpace=wrap;html=1;strokeColor=none;" vertex="1" parent="1">
          <mxGeometry x="30" y="40" width="800" height="40" as="geometry" />
        </mxCell>
        <mxCell id="iL6ysjgsh68Y96Oe1kEA-17" value="" style="rounded=0;whiteSpace=wrap;html=1;fillColor=none;strokeColor=#FFFFFF;" vertex="1" parent="1">
          <mxGeometry x="30" y="140" width="800" height="370" as="geometry" />
        </mxCell>
        <mxCell id="iL6ysjgsh68Y96Oe1kEA-18" value="" style="endArrow=none;html=1;rounded=0;strokeColor=#FFFFFF;exitX=0.5;exitY=1;exitDx=0;exitDy=0;" edge="1" parent="1">
          <mxGeometry width="50" height="50" relative="1" as="geometry">
            <mxPoint x="259" y="510" as="sourcePoint" />
            <mxPoint x="259" y="140" as="targetPoint" />
            <Array as="points">
              <mxPoint x="259" y="300" />
            </Array>
          </mxGeometry>
        </mxCell>
        <mxCell id="iL6ysjgsh68Y96Oe1kEA-19" value="" style="endArrow=none;html=1;rounded=0;strokeColor=#FFFFFF;exitX=0.5;exitY=1;exitDx=0;exitDy=0;" edge="1" parent="1">
          <mxGeometry width="50" height="50" relative="1" as="geometry">
            <mxPoint x="141" y="510" as="sourcePoint" />
            <mxPoint x="141" y="140" as="targetPoint" />
          </mxGeometry>
        </mxCell>
        <mxCell id="iL6ysjgsh68Y96Oe1kEA-20" value="" style="endArrow=none;html=1;rounded=0;strokeColor=#FFFFFF;exitX=0.5;exitY=1;exitDx=0;exitDy=0;" edge="1" parent="1">
          <mxGeometry width="50" height="50" relative="1" as="geometry">
            <mxPoint x="377.5" y="510" as="sourcePoint" />
            <mxPoint x="378" y="140" as="targetPoint" />
          </mxGeometry>
        </mxCell>
        <mxCell id="iL6ysjgsh68Y96Oe1kEA-21" value="" style="endArrow=none;html=1;rounded=0;strokeColor=#FFFFFF;exitX=0.5;exitY=1;exitDx=0;exitDy=0;" edge="1" parent="1">
          <mxGeometry width="50" height="50" relative="1" as="geometry">
            <mxPoint x="496" y="510" as="sourcePoint" />
            <mxPoint x="496" y="140" as="targetPoint" />
          </mxGeometry>
        </mxCell>
        <mxCell id="iL6ysjgsh68Y96Oe1kEA-22" value="" style="endArrow=none;html=1;rounded=0;strokeColor=#FFFFFF;exitX=0.5;exitY=1;exitDx=0;exitDy=0;" edge="1" parent="1">
          <mxGeometry width="50" height="50" relative="1" as="geometry">
            <mxPoint x="609" y="510" as="sourcePoint" />
            <mxPoint x="609" y="140" as="targetPoint" />
          </mxGeometry>
        </mxCell>
        <mxCell id="iL6ysjgsh68Y96Oe1kEA-23" value="" style="endArrow=none;html=1;rounded=0;strokeColor=#FFFFFF;entryX=0.998;entryY=0.512;entryDx=0;entryDy=0;exitX=0.001;exitY=0.514;exitDx=0;exitDy=0;entryPerimeter=0;exitPerimeter=0;" edge="1" parent="1" source="iL6ysjgsh68Y96Oe1kEA-17" target="iL6ysjgsh68Y96Oe1kEA-17">
          <mxGeometry width="50" height="50" relative="1" as="geometry">
            <mxPoint x="40" y="330" as="sourcePoint" />
            <mxPoint x="730" y="330" as="targetPoint" />
            <Array as="points">
              <mxPoint x="130" y="330" />
            </Array>
          </mxGeometry>
        </mxCell>
        <mxCell id="iL6ysjgsh68Y96Oe1kEA-24" value="" style="endArrow=none;html=1;rounded=0;strokeColor=#FFFFFF;entryX=1;entryY=0.25;entryDx=0;entryDy=0;exitX=0.002;exitY=0.243;exitDx=0;exitDy=0;exitPerimeter=0;" edge="1" parent="1" source="iL6ysjgsh68Y96Oe1kEA-17" target="iL6ysjgsh68Y96Oe1kEA-17">
          <mxGeometry width="50" height="50" relative="1" as="geometry">
            <mxPoint x="40" y="230" as="sourcePoint" />
            <mxPoint x="730" y="230" as="targetPoint" />
          </mxGeometry>
        </mxCell>
        <mxCell id="iL6ysjgsh68Y96Oe1kEA-25" value="" style="endArrow=none;html=1;rounded=0;strokeColor=#FFFFFF;entryX=0.999;entryY=0.756;entryDx=0;entryDy=0;exitX=0.002;exitY=0.756;exitDx=0;exitDy=0;entryPerimeter=0;exitPerimeter=0;" edge="1" parent="1" source="iL6ysjgsh68Y96Oe1kEA-17" target="iL6ysjgsh68Y96Oe1kEA-17">
          <mxGeometry width="50" height="50" relative="1" as="geometry">
            <mxPoint x="40" y="420" as="sourcePoint" />
            <mxPoint x="730" y="420" as="targetPoint" />
          </mxGeometry>
        </mxCell>
        <mxCell id="iL6ysjgsh68Y96Oe1kEA-28" value="&lt;font style=&quot;font-size: 22px;&quot; color=&quot;#ffffff&quot;&gt;JUNE&lt;/font&gt;" style="text;html=1;align=center;verticalAlign=middle;resizable=0;points=[];autosize=1;strokeColor=none;fillColor=none;" vertex="1" parent="1">
          <mxGeometry x="390" y="80" width="80" height="40" as="geometry" />
        </mxCell>
        <mxCell id="iL6ysjgsh68Y96Oe1kEA-29" value="" style="endArrow=none;html=1;rounded=0;" edge="1" parent="1">
          <mxGeometry width="50" height="50" relative="1" as="geometry">
            <mxPoint x="50" y="54" as="sourcePoint" />
            <mxPoint x="90" y="54" as="targetPoint" />
          </mxGeometry>
        </mxCell>
        <mxCell id="iL6ysjgsh68Y96Oe1kEA-30" value="" style="endArrow=none;html=1;rounded=0;" edge="1" parent="1">
          <mxGeometry width="50" height="50" relative="1" as="geometry">
            <mxPoint x="50" y="61" as="sourcePoint" />
            <mxPoint x="90" y="61" as="targetPoint" />
          </mxGeometry>
        </mxCell>
        <mxCell id="iL6ysjgsh68Y96Oe1kEA-31" value="" style="endArrow=none;html=1;rounded=0;" edge="1" parent="1">
          <mxGeometry width="50" height="50" relative="1" as="geometry">
            <mxPoint x="50" y="68" as="sourcePoint" />
            <mxPoint x="90" y="68" as="targetPoint" />
          </mxGeometry>
        </mxCell>
        <mxCell id="iL6ysjgsh68Y96Oe1kEA-32" value="&lt;font color=&quot;#ffffff&quot;&gt;1&lt;/font&gt;" style="text;html=1;align=center;verticalAlign=middle;whiteSpace=wrap;rounded=0;" vertex="1" parent="1">
          <mxGeometry x="30" y="145" width="30" height="20" as="geometry" />
        </mxCell>
        <mxCell id="iL6ysjgsh68Y96Oe1kEA-36" value="" style="rounded=1;whiteSpace=wrap;html=1;strokeColor=none;fillColor=#F8CECC;" vertex="1" parent="1">
          <mxGeometry x="40" y="120" width="90" height="20" as="geometry" />
        </mxCell>
        <mxCell id="iL6ysjgsh68Y96Oe1kEA-37" value="" style="rounded=0;whiteSpace=wrap;html=1;strokeColor=none;fillColor=#F8CECC;" vertex="1" parent="1">
          <mxGeometry x="40" y="130" width="90" height="10" as="geometry" />
        </mxCell>
        <mxCell id="iL6ysjgsh68Y96Oe1kEA-38" value="" style="rounded=1;whiteSpace=wrap;html=1;strokeColor=none;fillColor=#BBBDD6;" vertex="1" parent="1">
          <mxGeometry x="156" y="120" width="90" height="20" as="geometry" />
        </mxCell>
        <mxCell id="iL6ysjgsh68Y96Oe1kEA-39" value="" style="rounded=0;whiteSpace=wrap;html=1;strokeColor=none;fillColor=#BBBDD6;" vertex="1" parent="1">
          <mxGeometry x="156" y="130" width="90" height="10" as="geometry" />
        </mxCell>
        <mxCell id="iL6ysjgsh68Y96Oe1kEA-40" value="" style="rounded=1;whiteSpace=wrap;html=1;strokeColor=none;fillColor=#D5E8D4;" vertex="1" parent="1">
          <mxGeometry x="274" y="120" width="90" height="20" as="geometry" />
        </mxCell>
        <mxCell id="iL6ysjgsh68Y96Oe1kEA-41" value="" style="rounded=0;whiteSpace=wrap;html=1;strokeColor=none;fillColor=#D5E8D4;" vertex="1" parent="1">
          <mxGeometry x="274" y="130" width="90" height="10" as="geometry" />
        </mxCell>
        <mxCell id="iL6ysjgsh68Y96Oe1kEA-42" value="" style="rounded=1;whiteSpace=wrap;html=1;strokeColor=none;fillColor=#FFF4C3;" vertex="1" parent="1">
          <mxGeometry x="392" y="120" width="90" height="20" as="geometry" />
        </mxCell>
        <mxCell id="iL6ysjgsh68Y96Oe1kEA-43" value="" style="rounded=0;whiteSpace=wrap;html=1;strokeColor=none;fillColor=#FFF4C3;" vertex="1" parent="1">
          <mxGeometry x="392" y="130" width="90" height="10" as="geometry" />
        </mxCell>
        <mxCell id="iL6ysjgsh68Y96Oe1kEA-44" value="" style="rounded=1;whiteSpace=wrap;html=1;strokeColor=none;fillColor=#A7DDED;" vertex="1" parent="1">
          <mxGeometry x="509" y="120" width="90" height="20" as="geometry" />
        </mxCell>
        <mxCell id="iL6ysjgsh68Y96Oe1kEA-45" value="" style="rounded=0;whiteSpace=wrap;html=1;strokeColor=none;fillColor=#A7DDED;" vertex="1" parent="1">
          <mxGeometry x="509" y="130" width="90" height="10" as="geometry" />
        </mxCell>
        <mxCell id="iL6ysjgsh68Y96Oe1kEA-46" value="" style="rounded=1;whiteSpace=wrap;html=1;strokeColor=none;fillColor=#FFCE9F;" vertex="1" parent="1">
          <mxGeometry x="620" y="120" width="90" height="20" as="geometry" />
        </mxCell>
        <mxCell id="iL6ysjgsh68Y96Oe1kEA-47" value="" style="rounded=0;whiteSpace=wrap;html=1;strokeColor=none;fillColor=#FFCE9F;" vertex="1" parent="1">
          <mxGeometry x="620" y="130" width="90" height="10" as="geometry" />
        </mxCell>
        <mxCell id="iL6ysjgsh68Y96Oe1kEA-48" value="Sunday" style="text;html=1;align=center;verticalAlign=middle;whiteSpace=wrap;rounded=0;" vertex="1" parent="1">
          <mxGeometry x="59" y="115" width="60" height="30" as="geometry" />
        </mxCell>
        <mxCell id="iL6ysjgsh68Y96Oe1kEA-49" value="Monday" style="text;html=1;align=center;verticalAlign=middle;whiteSpace=wrap;rounded=0;" vertex="1" parent="1">
          <mxGeometry x="171" y="115" width="60" height="30" as="geometry" />
        </mxCell>
        <mxCell id="iL6ysjgsh68Y96Oe1kEA-50" value="Tuesday" style="text;html=1;align=center;verticalAlign=middle;whiteSpace=wrap;rounded=0;" vertex="1" parent="1">
          <mxGeometry x="289" y="115" width="60" height="30" as="geometry" />
        </mxCell>
        <mxCell id="iL6ysjgsh68Y96Oe1kEA-51" value="Wednesday" style="text;html=1;align=center;verticalAlign=middle;whiteSpace=wrap;rounded=0;" vertex="1" parent="1">
          <mxGeometry x="407" y="115" width="60" height="30" as="geometry" />
        </mxCell>
        <mxCell id="iL6ysjgsh68Y96Oe1kEA-52" value="Thursday" style="text;html=1;align=center;verticalAlign=middle;whiteSpace=wrap;rounded=0;" vertex="1" parent="1">
          <mxGeometry x="524" y="115" width="60" height="30" as="geometry" />
        </mxCell>
        <mxCell id="iL6ysjgsh68Y96Oe1kEA-53" value="Friday" style="text;html=1;align=center;verticalAlign=middle;whiteSpace=wrap;rounded=0;" vertex="1" parent="1">
          <mxGeometry x="635" y="115" width="60" height="30" as="geometry" />
        </mxCell>
        <mxCell id="iL6ysjgsh68Y96Oe1kEA-54" value="" style="endArrow=none;html=1;rounded=0;strokeColor=#FFFFFF;exitX=0.5;exitY=1;exitDx=0;exitDy=0;" edge="1" parent="1">
          <mxGeometry width="50" height="50" relative="1" as="geometry">
            <mxPoint x="722" y="510" as="sourcePoint" />
            <mxPoint x="722" y="140" as="targetPoint" />
          </mxGeometry>
        </mxCell>
        <mxCell id="iL6ysjgsh68Y96Oe1kEA-55" value="" style="rounded=1;whiteSpace=wrap;html=1;strokeColor=none;fillColor=#FFA5A2;" vertex="1" parent="1">
          <mxGeometry x="731" y="120" width="90" height="20" as="geometry" />
        </mxCell>
        <mxCell id="iL6ysjgsh68Y96Oe1kEA-56" value="" style="rounded=0;whiteSpace=wrap;html=1;strokeColor=none;fillColor=#FFA5A2;" vertex="1" parent="1">
          <mxGeometry x="731" y="130" width="90" height="10" as="geometry" />
        </mxCell>
        <mxCell id="iL6ysjgsh68Y96Oe1kEA-57" value="Saturday" style="text;html=1;align=center;verticalAlign=middle;whiteSpace=wrap;rounded=0;" vertex="1" parent="1">
          <mxGeometry x="746" y="115" width="60" height="30" as="geometry" />
        </mxCell>
        <mxCell id="iL6ysjgsh68Y96Oe1kEA-58" value="&lt;font color=&quot;#ffffff&quot;&gt;2&lt;/font&gt;" style="text;html=1;align=center;verticalAlign=middle;whiteSpace=wrap;rounded=0;" vertex="1" parent="1">
          <mxGeometry x="141" y="145" width="30" height="20" as="geometry" />
        </mxCell>
        <mxCell id="iL6ysjgsh68Y96Oe1kEA-59" value="&lt;font color=&quot;#ffffff&quot;&gt;3&lt;/font&gt;" style="text;html=1;align=center;verticalAlign=middle;whiteSpace=wrap;rounded=0;" vertex="1" parent="1">
          <mxGeometry x="259" y="145" width="30" height="20" as="geometry" />
        </mxCell>
        <mxCell id="iL6ysjgsh68Y96Oe1kEA-60" value="&lt;font color=&quot;#ffffff&quot;&gt;4&lt;br&gt;&lt;/font&gt;" style="text;html=1;align=center;verticalAlign=middle;whiteSpace=wrap;rounded=0;" vertex="1" parent="1">
          <mxGeometry x="380" y="145" width="30" height="20" as="geometry" />
        </mxCell>
        <mxCell id="iL6ysjgsh68Y96Oe1kEA-61" value="&lt;font color=&quot;#ffffff&quot;&gt;5&lt;/font&gt;" style="text;html=1;align=center;verticalAlign=middle;whiteSpace=wrap;rounded=0;" vertex="1" parent="1">
          <mxGeometry x="500" y="145" width="30" height="20" as="geometry" />
        </mxCell>
        <mxCell id="iL6ysjgsh68Y96Oe1kEA-62" value="&lt;font color=&quot;#ffffff&quot;&gt;6&lt;/font&gt;" style="text;html=1;align=center;verticalAlign=middle;whiteSpace=wrap;rounded=0;" vertex="1" parent="1">
          <mxGeometry x="610" y="145" width="30" height="20" as="geometry" />
        </mxCell>
        <mxCell id="iL6ysjgsh68Y96Oe1kEA-63" value="&lt;font color=&quot;#ffffff&quot;&gt;7&lt;/font&gt;" style="text;html=1;align=center;verticalAlign=middle;whiteSpace=wrap;rounded=0;" vertex="1" parent="1">
          <mxGeometry x="727" y="145" width="30" height="20" as="geometry" />
        </mxCell>
        <mxCell id="iL6ysjgsh68Y96Oe1kEA-64" value="&lt;font color=&quot;#ffffff&quot;&gt;8&lt;/font&gt;" style="text;html=1;align=center;verticalAlign=middle;whiteSpace=wrap;rounded=0;" vertex="1" parent="1">
          <mxGeometry x="30" y="240" width="30" height="20" as="geometry" />
        </mxCell>
        <mxCell id="iL6ysjgsh68Y96Oe1kEA-66" value="&lt;font color=&quot;#ffffff&quot;&gt;9&lt;/font&gt;" style="text;html=1;align=center;verticalAlign=middle;whiteSpace=wrap;rounded=0;" vertex="1" parent="1">
          <mxGeometry x="141" y="240" width="30" height="20" as="geometry" />
        </mxCell>
        <mxCell id="iL6ysjgsh68Y96Oe1kEA-67" value="&lt;font color=&quot;#ffffff&quot;&gt;10&lt;/font&gt;" style="text;html=1;align=center;verticalAlign=middle;whiteSpace=wrap;rounded=0;" vertex="1" parent="1">
          <mxGeometry x="259" y="240" width="30" height="20" as="geometry" />
        </mxCell>
        <mxCell id="iL6ysjgsh68Y96Oe1kEA-69" value="&lt;font color=&quot;#ffffff&quot;&gt;11&lt;/font&gt;" style="text;html=1;align=center;verticalAlign=middle;whiteSpace=wrap;rounded=0;" vertex="1" parent="1">
          <mxGeometry x="380" y="240" width="30" height="20" as="geometry" />
        </mxCell>
        <mxCell id="iL6ysjgsh68Y96Oe1kEA-70" value="&lt;font color=&quot;#ffffff&quot;&gt;12&lt;/font&gt;" style="text;html=1;align=center;verticalAlign=middle;whiteSpace=wrap;rounded=0;" vertex="1" parent="1">
          <mxGeometry x="500" y="240" width="30" height="20" as="geometry" />
        </mxCell>
        <mxCell id="iL6ysjgsh68Y96Oe1kEA-71" value="&lt;font color=&quot;#ffffff&quot;&gt;13&lt;/font&gt;" style="text;html=1;align=center;verticalAlign=middle;whiteSpace=wrap;rounded=0;" vertex="1" parent="1">
          <mxGeometry x="610" y="240" width="30" height="20" as="geometry" />
        </mxCell>
        <mxCell id="iL6ysjgsh68Y96Oe1kEA-72" value="&lt;font color=&quot;#ffffff&quot;&gt;14&lt;/font&gt;" style="text;html=1;align=center;verticalAlign=middle;whiteSpace=wrap;rounded=0;" vertex="1" parent="1">
          <mxGeometry x="727" y="240" width="30" height="20" as="geometry" />
        </mxCell>
        <mxCell id="iL6ysjgsh68Y96Oe1kEA-73" value="&lt;font color=&quot;#ffffff&quot;&gt;15&lt;/font&gt;" style="text;html=1;align=center;verticalAlign=middle;whiteSpace=wrap;rounded=0;" vertex="1" parent="1">
          <mxGeometry x="30" y="340" width="30" height="20" as="geometry" />
        </mxCell>
        <mxCell id="iL6ysjgsh68Y96Oe1kEA-74" value="&lt;font color=&quot;#ffffff&quot;&gt;16&lt;/font&gt;" style="text;html=1;align=center;verticalAlign=middle;whiteSpace=wrap;rounded=0;" vertex="1" parent="1">
          <mxGeometry x="141" y="340" width="30" height="20" as="geometry" />
        </mxCell>
        <mxCell id="iL6ysjgsh68Y96Oe1kEA-75" value="&lt;font color=&quot;#ffffff&quot;&gt;17&lt;/font&gt;" style="text;html=1;align=center;verticalAlign=middle;whiteSpace=wrap;rounded=0;" vertex="1" parent="1">
          <mxGeometry x="259" y="340" width="30" height="20" as="geometry" />
        </mxCell>
        <mxCell id="iL6ysjgsh68Y96Oe1kEA-76" value="&lt;font color=&quot;#ffffff&quot;&gt;18&lt;/font&gt;" style="text;html=1;align=center;verticalAlign=middle;whiteSpace=wrap;rounded=0;" vertex="1" parent="1">
          <mxGeometry x="380" y="340" width="30" height="20" as="geometry" />
        </mxCell>
        <mxCell id="iL6ysjgsh68Y96Oe1kEA-77" value="&lt;font color=&quot;#ffffff&quot;&gt;19&lt;/font&gt;" style="text;html=1;align=center;verticalAlign=middle;whiteSpace=wrap;rounded=0;" vertex="1" parent="1">
          <mxGeometry x="500" y="340" width="30" height="20" as="geometry" />
        </mxCell>
        <mxCell id="iL6ysjgsh68Y96Oe1kEA-78" value="&lt;font color=&quot;#ffffff&quot;&gt;20&lt;/font&gt;" style="text;html=1;align=center;verticalAlign=middle;whiteSpace=wrap;rounded=0;" vertex="1" parent="1">
          <mxGeometry x="610" y="340" width="30" height="20" as="geometry" />
        </mxCell>
        <mxCell id="iL6ysjgsh68Y96Oe1kEA-79" value="&lt;font color=&quot;#ffffff&quot;&gt;21&lt;/font&gt;" style="text;html=1;align=center;verticalAlign=middle;whiteSpace=wrap;rounded=0;" vertex="1" parent="1">
          <mxGeometry x="727" y="340" width="30" height="20" as="geometry" />
        </mxCell>
        <mxCell id="iL6ysjgsh68Y96Oe1kEA-81" value="&lt;font color=&quot;#ffffff&quot;&gt;22&lt;/font&gt;" style="text;html=1;align=center;verticalAlign=middle;whiteSpace=wrap;rounded=0;" vertex="1" parent="1">
          <mxGeometry x="29" y="430" width="30" height="20" as="geometry" />
        </mxCell>
        <mxCell id="iL6ysjgsh68Y96Oe1kEA-82" value="&lt;font color=&quot;#ffffff&quot;&gt;23&lt;/font&gt;" style="text;html=1;align=center;verticalAlign=middle;whiteSpace=wrap;rounded=0;" vertex="1" parent="1">
          <mxGeometry x="141" y="430" width="30" height="20" as="geometry" />
        </mxCell>
        <mxCell id="iL6ysjgsh68Y96Oe1kEA-83" value="&lt;font color=&quot;#ffffff&quot;&gt;24&lt;/font&gt;" style="text;html=1;align=center;verticalAlign=middle;whiteSpace=wrap;rounded=0;" vertex="1" parent="1">
          <mxGeometry x="259" y="430" width="30" height="20" as="geometry" />
        </mxCell>
        <mxCell id="iL6ysjgsh68Y96Oe1kEA-84" value="&lt;font color=&quot;#ffffff&quot;&gt;25&lt;/font&gt;" style="text;html=1;align=center;verticalAlign=middle;whiteSpace=wrap;rounded=0;" vertex="1" parent="1">
          <mxGeometry x="377" y="430" width="30" height="20" as="geometry" />
        </mxCell>
        <mxCell id="iL6ysjgsh68Y96Oe1kEA-85" value="&lt;font color=&quot;#ffffff&quot;&gt;26&lt;/font&gt;" style="text;html=1;align=center;verticalAlign=middle;whiteSpace=wrap;rounded=0;" vertex="1" parent="1">
          <mxGeometry x="500" y="430" width="30" height="20" as="geometry" />
        </mxCell>
        <mxCell id="iL6ysjgsh68Y96Oe1kEA-86" value="&lt;font color=&quot;#ffffff&quot;&gt;27&lt;/font&gt;" style="text;html=1;align=center;verticalAlign=middle;whiteSpace=wrap;rounded=0;" vertex="1" parent="1">
          <mxGeometry x="610" y="430" width="30" height="20" as="geometry" />
        </mxCell>
        <mxCell id="iL6ysjgsh68Y96Oe1kEA-87" value="&lt;font color=&quot;#ffffff&quot;&gt;28&lt;/font&gt;" style="text;html=1;align=center;verticalAlign=middle;whiteSpace=wrap;rounded=0;" vertex="1" parent="1">
          <mxGeometry x="727" y="430" width="30" height="20" as="geometry" />
        </mxCell>
        <mxCell id="iL6ysjgsh68Y96Oe1kEA-88" value="" style="rounded=0;whiteSpace=wrap;html=1;strokeColor=none;fillColor=#000000;" vertex="1" parent="1">
          <mxGeometry x="30" y="510" width="800" height="90" as="geometry" />
        </mxCell>
        <mxCell id="iL6ysjgsh68Y96Oe1kEA-89" value="" style="endArrow=none;html=1;rounded=0;" edge="1" parent="1">
          <mxGeometry width="50" height="50" relative="1" as="geometry">
            <mxPoint x="450" y="430" as="sourcePoint" />
            <mxPoint x="500" y="380" as="targetPoint" />
          </mxGeometry>
        </mxCell>
        <mxCell id="iL6ysjgsh68Y96Oe1kEA-90" value="" style="endArrow=none;html=1;rounded=0;strokeColor=#FFFFFF;" edge="1" parent="1">
          <mxGeometry width="50" height="50" relative="1" as="geometry">
            <mxPoint x="141" y="600" as="sourcePoint" />
            <mxPoint x="141" y="510" as="targetPoint" />
          </mxGeometry>
        </mxCell>
        <mxCell id="iL6ysjgsh68Y96Oe1kEA-91" value="" style="endArrow=none;html=1;rounded=0;strokeColor=#FFFFFF;" edge="1" parent="1">
          <mxGeometry width="50" height="50" relative="1" as="geometry">
            <mxPoint x="259.17" y="600" as="sourcePoint" />
            <mxPoint x="259.17" y="510" as="targetPoint" />
          </mxGeometry>
        </mxCell>
        <mxCell id="iL6ysjgsh68Y96Oe1kEA-94" value="" style="endArrow=none;html=1;rounded=0;strokeColor=#FFFFFF;" edge="1" parent="1">
          <mxGeometry width="50" height="50" relative="1" as="geometry">
            <mxPoint x="377" y="600" as="sourcePoint" />
            <mxPoint x="377" y="510" as="targetPoint" />
          </mxGeometry>
        </mxCell>
        <mxCell id="iL6ysjgsh68Y96Oe1kEA-95" value="" style="endArrow=none;html=1;rounded=0;strokeColor=#FFFFFF;" edge="1" parent="1">
          <mxGeometry width="50" height="50" relative="1" as="geometry">
            <mxPoint x="495.61" y="600" as="sourcePoint" />
            <mxPoint x="495.61" y="510" as="targetPoint" />
          </mxGeometry>
        </mxCell>
        <mxCell id="iL6ysjgsh68Y96Oe1kEA-96" value="" style="endArrow=none;html=1;rounded=0;strokeColor=#FFFFFF;" edge="1" parent="1">
          <mxGeometry width="50" height="50" relative="1" as="geometry">
            <mxPoint x="609.61" y="600" as="sourcePoint" />
            <mxPoint x="609.61" y="510" as="targetPoint" />
          </mxGeometry>
        </mxCell>
        <mxCell id="iL6ysjgsh68Y96Oe1kEA-98" value="" style="endArrow=none;html=1;rounded=0;strokeColor=#FFFFFF;" edge="1" parent="1">
          <mxGeometry width="50" height="50" relative="1" as="geometry">
            <mxPoint x="722" y="600" as="sourcePoint" />
            <mxPoint x="722" y="510" as="targetPoint" />
          </mxGeometry>
        </mxCell>
        <mxCell id="iL6ysjgsh68Y96Oe1kEA-99" value="&lt;font color=&quot;#ffffff&quot;&gt;29&lt;/font&gt;" style="text;html=1;align=center;verticalAlign=middle;whiteSpace=wrap;rounded=0;" vertex="1" parent="1">
          <mxGeometry x="20" y="520" width="50" height="20" as="geometry" />
        </mxCell>
        <mxCell id="iL6ysjgsh68Y96Oe1kEA-100" value="&lt;font color=&quot;#ffffff&quot;&gt;30&lt;/font&gt;" style="text;html=1;align=center;verticalAlign=middle;whiteSpace=wrap;rounded=0;" vertex="1" parent="1">
          <mxGeometry x="141" y="520" width="30" height="20" as="geometry" />
        </mxCell>
        <mxCell id="iL6ysjgsh68Y96Oe1kEA-101" value="&lt;font color=&quot;#ffffff&quot;&gt;Today&lt;/font&gt;" style="rounded=1;whiteSpace=wrap;html=1;strokeColor=none;fillColor=#000000;" vertex="1" parent="1">
          <mxGeometry x="676" y="45" width="55" height="30" as="geometry" />
        </mxCell>
        <mxCell id="iL6ysjgsh68Y96Oe1kEA-102" value="&lt;font color=&quot;#ffffff&quot;&gt;Contact&lt;/font&gt;" style="rounded=1;whiteSpace=wrap;html=1;strokeColor=none;fillColor=#000000;" vertex="1" parent="1">
          <mxGeometry x="748.5" y="45" width="55" height="30" as="geometry" />
        </mxCell>
        <mxCell id="iL6ysjgsh68Y96Oe1kEA-103" value="9am Chem Exam" style="rounded=1;whiteSpace=wrap;html=1;strokeColor=none;fillColor=#F7ECDE;" vertex="1" parent="1">
          <mxGeometry x="268.5" y="180" width="101" height="20" as="geometry" />
        </mxCell>
        <mxCell id="iL6ysjgsh68Y96Oe1kEA-104" value="3pm Dentist" style="rounded=1;whiteSpace=wrap;html=1;strokeColor=none;fillColor=#F7ECDE;" vertex="1" parent="1">
          <mxGeometry x="386.5" y="280" width="101" height="20" as="geometry" />
        </mxCell>
        <mxCell id="iL6ysjgsh68Y96Oe1kEA-105" value="11:59pm Project Due" style="rounded=1;whiteSpace=wrap;html=1;strokeColor=none;fillColor=#F7ECDE;" vertex="1" parent="1">
          <mxGeometry x="725.5" y="190" width="101" height="30" as="geometry" />
        </mxCell>
        <mxCell id="iL6ysjgsh68Y96Oe1kEA-106" value="10am Bio Class" style="rounded=1;whiteSpace=wrap;html=1;strokeColor=none;fillColor=#F7ECDE;" vertex="1" parent="1">
          <mxGeometry x="150.5" y="270" width="101" height="20" as="geometry" />
        </mxCell>
        <mxCell id="iL6ysjgsh68Y96Oe1kEA-107" value="12pm Seminar" style="rounded=1;whiteSpace=wrap;html=1;strokeColor=none;fillColor=#F7ECDE;" vertex="1" parent="1">
          <mxGeometry x="150.5" y="300" width="101" height="20" as="geometry" />
        </mxCell>
        <mxCell id="iL6ysjgsh68Y96Oe1kEA-108" value="1:30pm Vet Appointment" style="rounded=1;whiteSpace=wrap;html=1;strokeColor=none;fillColor=#F7ECDE;" vertex="1" parent="1">
          <mxGeometry x="268.5" y="380" width="101" height="30" as="geometry" />
        </mxCell>
        <mxCell id="iL6ysjgsh68Y96Oe1kEA-109" value="" style="rounded=0;whiteSpace=wrap;html=1;rotation=90;strokeColor=default;" vertex="1" parent="1">
          <mxGeometry x="10.75" y="639.25" width="390" height="350.5" as="geometry" />
        </mxCell>
        <mxCell id="iL6ysjgsh68Y96Oe1kEA-110" value="&lt;font style=&quot;font-size: 30px;&quot;&gt;Today&#39;s Tasks&lt;/font&gt;" style="text;html=1;align=center;verticalAlign=middle;whiteSpace=wrap;rounded=0;" vertex="1" parent="1">
          <mxGeometry x="72.56" y="650" width="266.38" height="30" as="geometry" />
        </mxCell>
        <mxCell id="iL6ysjgsh68Y96Oe1kEA-111" value="" style="whiteSpace=wrap;html=1;aspect=fixed;" vertex="1" parent="1">
          <mxGeometry x="72.56" y="750" width="10" height="10" as="geometry" />
        </mxCell>
        <mxCell id="iL6ysjgsh68Y96Oe1kEA-113" value="&lt;font style=&quot;font-size: 16px;&quot;&gt;Current:&lt;/font&gt;" style="text;html=1;align=left;verticalAlign=middle;whiteSpace=wrap;rounded=0;" vertex="1" parent="1">
          <mxGeometry x="70" y="710" width="60" height="30" as="geometry" />
        </mxCell>
        <mxCell id="iL6ysjgsh68Y96Oe1kEA-115" value="" style="whiteSpace=wrap;html=1;aspect=fixed;" vertex="1" parent="1">
          <mxGeometry x="72.56" y="770" width="10" height="10" as="geometry" />
        </mxCell>
        <mxCell id="iL6ysjgsh68Y96Oe1kEA-116" value="" style="whiteSpace=wrap;html=1;aspect=fixed;" vertex="1" parent="1">
          <mxGeometry x="72.56" y="790" width="10" height="10" as="geometry" />
        </mxCell>
        <mxCell id="iL6ysjgsh68Y96Oe1kEA-117" value="Take out trash" style="text;html=1;align=left;verticalAlign=middle;whiteSpace=wrap;rounded=0;" vertex="1" parent="1">
          <mxGeometry x="92.28" y="740" width="127.44" height="30" as="geometry" />
        </mxCell>
        <mxCell id="iL6ysjgsh68Y96Oe1kEA-118" value="Finish biology notes" style="text;html=1;align=left;verticalAlign=middle;whiteSpace=wrap;rounded=0;" vertex="1" parent="1">
          <mxGeometry x="92.28" y="760" width="127.44" height="30" as="geometry" />
        </mxCell>
        <mxCell id="iL6ysjgsh68Y96Oe1kEA-119" value="Pick up groceries" style="text;html=1;align=left;verticalAlign=middle;whiteSpace=wrap;rounded=0;" vertex="1" parent="1">
          <mxGeometry x="92.28" y="780" width="127.44" height="30" as="geometry" />
        </mxCell>
        <mxCell id="iL6ysjgsh68Y96Oe1kEA-120" value="" style="endArrow=none;dashed=1;html=1;dashPattern=1 3;strokeWidth=2;rounded=0;" edge="1" parent="1">
          <mxGeometry width="50" height="50" relative="1" as="geometry">
            <mxPoint x="30" y="850" as="sourcePoint" />
            <mxPoint x="384" y="850" as="targetPoint" />
          </mxGeometry>
        </mxCell>
        <mxCell id="iL6ysjgsh68Y96Oe1kEA-121" value="&lt;font style=&quot;font-size: 16px;&quot;&gt;Past:&lt;/font&gt;" style="text;html=1;align=left;verticalAlign=middle;whiteSpace=wrap;rounded=0;" vertex="1" parent="1">
          <mxGeometry x="72.56" y="870" width="60" height="30" as="geometry" />
        </mxCell>
        <mxCell id="iL6ysjgsh68Y96Oe1kEA-122" value="" style="whiteSpace=wrap;html=1;aspect=fixed;" vertex="1" parent="1">
          <mxGeometry x="72.56" y="910" width="10" height="10" as="geometry" />
        </mxCell>
        <mxCell id="iL6ysjgsh68Y96Oe1kEA-123" value="" style="whiteSpace=wrap;html=1;aspect=fixed;" vertex="1" parent="1">
          <mxGeometry x="72.56" y="930" width="10" height="10" as="geometry" />
        </mxCell>
        <mxCell id="iL6ysjgsh68Y96Oe1kEA-124" value="" style="whiteSpace=wrap;html=1;aspect=fixed;" vertex="1" parent="1">
          <mxGeometry x="72.56" y="950" width="10" height="10" as="geometry" />
        </mxCell>
        <mxCell id="iL6ysjgsh68Y96Oe1kEA-125" value="Feed the cat" style="text;html=1;align=left;verticalAlign=middle;whiteSpace=wrap;rounded=0;" vertex="1" parent="1">
          <mxGeometry x="92.28" y="900" width="127.44" height="30" as="geometry" />
        </mxCell>
        <mxCell id="iL6ysjgsh68Y96Oe1kEA-126" value="Walk the dog" style="text;html=1;align=left;verticalAlign=middle;whiteSpace=wrap;rounded=0;" vertex="1" parent="1">
          <mxGeometry x="92.28" y="920" width="127.44" height="30" as="geometry" />
        </mxCell>
        <mxCell id="iL6ysjgsh68Y96Oe1kEA-127" value="Walk the dog" style="text;html=1;align=left;verticalAlign=middle;whiteSpace=wrap;rounded=0;" vertex="1" parent="1">
          <mxGeometry x="92.28" y="940" width="127.44" height="30" as="geometry" />
        </mxCell>
        <mxCell id="iL6ysjgsh68Y96Oe1kEA-128" value="&lt;font style=&quot;font-size: 14px;&quot;&gt;X&lt;/font&gt;" style="text;html=1;align=center;verticalAlign=middle;whiteSpace=wrap;rounded=0;" vertex="1" parent="1">
          <mxGeometry x="68.42" y="909" width="20.27" height="11" as="geometry" />
        </mxCell>
        <mxCell id="iL6ysjgsh68Y96Oe1kEA-129" value="&lt;font style=&quot;font-size: 14px;&quot;&gt;X&lt;/font&gt;" style="text;html=1;align=center;verticalAlign=middle;whiteSpace=wrap;rounded=0;" vertex="1" parent="1">
          <mxGeometry x="68.42" y="929" width="20.27" height="11" as="geometry" />
        </mxCell>
        <mxCell id="iL6ysjgsh68Y96Oe1kEA-130" value="&lt;font style=&quot;font-size: 14px;&quot;&gt;X&lt;/font&gt;" style="text;html=1;align=center;verticalAlign=middle;whiteSpace=wrap;rounded=0;" vertex="1" parent="1">
          <mxGeometry x="68.42" y="949.5" width="20.27" height="11" as="geometry" />
        </mxCell>
        <mxCell id="iL6ysjgsh68Y96Oe1kEA-131" value="" style="rounded=0;whiteSpace=wrap;html=1;rotation=90;strokeColor=none;fillColor=#000000;" vertex="1" parent="1">
          <mxGeometry x="408" y="634" width="388" height="360" as="geometry" />
        </mxCell>
        <mxCell id="iL6ysjgsh68Y96Oe1kEA-132" value="&lt;font color=&quot;#ffffff&quot; style=&quot;font-size: 30px;&quot;&gt;Contact&lt;/font&gt;" style="text;html=1;align=center;verticalAlign=middle;whiteSpace=wrap;rounded=0;" vertex="1" parent="1">
          <mxGeometry x="468.81" y="634" width="266.38" height="30" as="geometry" />
        </mxCell>
        <mxCell id="iL6ysjgsh68Y96Oe1kEA-133" value="" style="rounded=1;whiteSpace=wrap;html=1;fillColor=none;strokeColor=#FFFFFF;" vertex="1" parent="1">
          <mxGeometry x="450" y="680" width="300" height="290" as="geometry" />
        </mxCell>
        <mxCell id="iL6ysjgsh68Y96Oe1kEA-134" value="" style="rounded=0;whiteSpace=wrap;html=1;strokeColor=none;" vertex="1" parent="1">
          <mxGeometry x="470" y="740" width="115" height="30" as="geometry" />
        </mxCell>
        <mxCell id="iL6ysjgsh68Y96Oe1kEA-135" value="" style="rounded=0;whiteSpace=wrap;html=1;strokeColor=none;" vertex="1" parent="1">
          <mxGeometry x="470" y="799" width="115" height="30" as="geometry" />
        </mxCell>
        <mxCell id="iL6ysjgsh68Y96Oe1kEA-136" value="" style="rounded=0;whiteSpace=wrap;html=1;strokeColor=none;" vertex="1" parent="1">
          <mxGeometry x="470" y="859" width="115" height="30" as="geometry" />
        </mxCell>
        <mxCell id="iL6ysjgsh68Y96Oe1kEA-137" value="&lt;font color=&quot;#ffffff&quot;&gt;First Name:&lt;/font&gt;" style="text;html=1;align=left;verticalAlign=middle;whiteSpace=wrap;rounded=0;" vertex="1" parent="1">
          <mxGeometry x="470" y="710" width="80" height="30" as="geometry" />
        </mxCell>
        <mxCell id="iL6ysjgsh68Y96Oe1kEA-138" value="&lt;font color=&quot;#ffffff&quot;&gt;Last Name:&lt;/font&gt;" style="text;html=1;align=left;verticalAlign=middle;whiteSpace=wrap;rounded=0;" vertex="1" parent="1">
          <mxGeometry x="468.81" y="770" width="80" height="30" as="geometry" />
        </mxCell>
        <mxCell id="iL6ysjgsh68Y96Oe1kEA-139" value="&lt;font color=&quot;#ffffff&quot;&gt;Email:&lt;/font&gt;" style="text;html=1;align=left;verticalAlign=middle;whiteSpace=wrap;rounded=0;" vertex="1" parent="1">
          <mxGeometry x="468.81" y="829" width="80" height="30" as="geometry" />
        </mxCell>
        <mxCell id="iL6ysjgsh68Y96Oe1kEA-140" value="" style="rounded=0;whiteSpace=wrap;html=1;strokeColor=none;" vertex="1" parent="1">
          <mxGeometry x="607.5" y="740" width="115" height="190" as="geometry" />
        </mxCell>
        <mxCell id="iL6ysjgsh68Y96Oe1kEA-141" value="&lt;font color=&quot;#ffffff&quot;&gt;Comment:&lt;/font&gt;" style="text;html=1;align=left;verticalAlign=middle;whiteSpace=wrap;rounded=0;" vertex="1" parent="1">
          <mxGeometry x="607.5" y="710" width="80" height="30" as="geometry" />
        </mxCell>
        <mxCell id="iL6ysjgsh68Y96Oe1kEA-142" value="" style="rounded=1;whiteSpace=wrap;html=1;fillColor=none;strokeColor=#FFFFFF;" vertex="1" parent="1">
          <mxGeometry x="497" y="919.5" width="61" height="30" as="geometry" />
        </mxCell>
        <mxCell id="iL6ysjgsh68Y96Oe1kEA-143" value="&lt;font color=&quot;#ffffff&quot;&gt;Send&lt;/font&gt;" style="text;html=1;align=center;verticalAlign=middle;whiteSpace=wrap;rounded=0;" vertex="1" parent="1">
          <mxGeometry x="497" y="919.5" width="60" height="30" as="geometry" />
        </mxCell>
        <mxCell id="iL6ysjgsh68Y96Oe1kEA-145" style="edgeStyle=orthogonalEdgeStyle;rounded=0;orthogonalLoop=1;jettySize=auto;html=1;entryX=0.412;entryY=1.001;entryDx=0;entryDy=0;entryPerimeter=0;strokeWidth=3;" edge="1" parent="1" target="iL6ysjgsh68Y96Oe1kEA-109">
          <mxGeometry relative="1" as="geometry">
            <mxPoint x="30" y="440" as="sourcePoint" />
            <mxPoint x="21.995000000000005" y="780" as="targetPoint" />
            <Array as="points">
              <mxPoint x="30" y="443" />
              <mxPoint x="30" y="440" />
              <mxPoint x="20" y="440" />
              <mxPoint x="20" y="612" />
              <mxPoint y="612" />
              <mxPoint y="780" />
            </Array>
          </mxGeometry>
        </mxCell>
        <mxCell id="iL6ysjgsh68Y96Oe1kEA-146" style="edgeStyle=orthogonalEdgeStyle;rounded=0;orthogonalLoop=1;jettySize=auto;html=1;exitX=0;exitY=0.5;exitDx=0;exitDy=0;entryX=0.027;entryY=0.031;entryDx=0;entryDy=0;entryPerimeter=0;strokeColor=#808080;strokeWidth=3;" edge="1" parent="1" source="iL6ysjgsh68Y96Oe1kEA-101" target="iL6ysjgsh68Y96Oe1kEA-109">
          <mxGeometry relative="1" as="geometry" />
        </mxCell>
        <mxCell id="iL6ysjgsh68Y96Oe1kEA-147" style="edgeStyle=orthogonalEdgeStyle;rounded=0;orthogonalLoop=1;jettySize=auto;html=1;exitX=1;exitY=0.5;exitDx=0;exitDy=0;entryX=0.284;entryY=0;entryDx=0;entryDy=0;entryPerimeter=0;strokeWidth=3;" edge="1" parent="1" source="iL6ysjgsh68Y96Oe1kEA-102" target="iL6ysjgsh68Y96Oe1kEA-131">
          <mxGeometry relative="1" as="geometry">
            <Array as="points">
              <mxPoint x="840" y="60" />
              <mxPoint x="840" y="730" />
            </Array>
          </mxGeometry>
        </mxCell>
        <mxCell id="iL6ysjgsh68Y96Oe1kEA-148" value="" style="ellipse;whiteSpace=wrap;html=1;aspect=fixed;" vertex="1" parent="1">
          <mxGeometry x="349" y="630" width="20" height="20" as="geometry" />
        </mxCell>
        <mxCell id="iL6ysjgsh68Y96Oe1kEA-149" value="X" style="text;html=1;align=center;verticalAlign=middle;whiteSpace=wrap;rounded=0;" vertex="1" parent="1">
          <mxGeometry x="329" y="625" width="60" height="30" as="geometry" />
        </mxCell>
        <mxCell id="iL6ysjgsh68Y96Oe1kEA-150" value="&lt;font style=&quot;font-size: 10px;&quot;&gt;Take out trash&lt;/font&gt;" style="rounded=1;whiteSpace=wrap;html=1;strokeColor=none;fillColor=#F7ECDE;" vertex="1" parent="1">
          <mxGeometry x="34.5" y="450" width="101" height="10" as="geometry" />
        </mxCell>
        <mxCell id="iL6ysjgsh68Y96Oe1kEA-151" value="&lt;font style=&quot;font-size: 10px;&quot;&gt;Finish biology notes&lt;/font&gt;" style="rounded=1;whiteSpace=wrap;html=1;strokeColor=none;fillColor=#F7ECDE;" vertex="1" parent="1">
          <mxGeometry x="34.5" y="470" width="101" height="10" as="geometry" />
        </mxCell>
        <mxCell id="iL6ysjgsh68Y96Oe1kEA-152" value="&lt;font style=&quot;font-size: 10px;&quot;&gt;Pick up groceries&lt;/font&gt;" style="rounded=1;whiteSpace=wrap;html=1;strokeColor=none;fillColor=#F7ECDE;" vertex="1" parent="1">
          <mxGeometry x="34.5" y="490" width="101" height="10" as="geometry" />
        </mxCell>
        <mxCell id="iL6ysjgsh68Y96Oe1kEA-153" value="" style="ellipse;whiteSpace=wrap;html=1;aspect=fixed;" vertex="1" parent="1">
          <mxGeometry x="72.56" y="810" width="10" height="10" as="geometry" />
        </mxCell>
        <mxCell id="iL6ysjgsh68Y96Oe1kEA-154" value="Add tasks" style="text;html=1;align=left;verticalAlign=middle;whiteSpace=wrap;rounded=0;" vertex="1" parent="1">
          <mxGeometry x="92.28" y="799.5" width="127.44" height="30" as="geometry" />
        </mxCell>
      </root>
    </mxGraphModel>
  </diagram>
</mxfile>
